  0
SECTION
  2
HEADER
  9
$ACADVER
  1
AC1006
  9
$EXTMIN
 10
0.000000
 20
0.000000
 30
0.000000
  9
$EXTMAX
 10
1881.000000
 20
1638.000000
 30
0.000000
  0
ENDSEC
  0
SECTION
  2
ENTITIES
  0
POLYLINE
  8
0
 66
1
 70
1
  0
VERTEX
  8
0
 10
930.000000
 20
1636.908526
 42
0.061929
  0
VERTEX
  8
0
 10
921.468015
 20
1634.126697
 42
0.040905
  0
VERTEX
  8
0
 10
912.510349
 20
1628.990221
 42
0.040861
  0
VERTEX
  8
0
 10
904.493887
 20
1622.453278
 42
0.061100
  0
VERTEX
  8
0
 10
898.796168
 20
1615.450308
 42
0.009504
  0
VERTEX
  8
0
 10
882.009291
 20
1587.567887
 42
0.000007
  0
VERTEX
  8
0
 10
448.365924
 20
835.282325
 42
0.000001
  0
VERTEX
  8
0
 10
8.386253
 20
71.976288
 42
0.048567
  0
VERTEX
  8
0
 10
5.706304
 20
66.067986
 42
0.108897
  0
VERTEX
  8
0
 10
3.391740
 20
45.458926
 42
0.103799
  0
VERTEX
  8
0
 10
9.863432
 20
25.390762
 42
0.103740
  0
VERTEX
  8
0
 10
23.861044
 20
9.608876
 42
0.108652
  0
VERTEX
  8
0
 10
42.799221
 20
1.105084
 42
0.051439
  0
VERTEX
  8
0
 10
54.188419
 20
-0.069913
 42
0.000004
  0
VERTEX
  8
0
 10
940.500000
 20
-0.077542
 42
0.000004
  0
VERTEX
  8
0
 10
1826.811581
 20
-0.069913
 42
0.051439
  0
VERTEX
  8
0
 10
1838.200779
 20
1.105084
 42
0.076799
  0
VERTEX
  8
0
 10
1851.678401
 20
6.161000
 42
0.071107
  0
VERTEX
  8
0
 10
1863.404131
 20
15.152181
 42
0.070819
  0
VERTEX
  8
0
 10
1872.180180
 20
27.106719
 42
0.075088
  0
VERTEX
  8
0
 10
1877.055401
 20
40.803219
 42
0.037312
  0
VERTEX
  8
0
 10
1877.767376
 20
46.835790
 42
0.028141
  0
VERTEX
  8
0
 10
1877.678047
 20
53.512534
 42
0.028099
  0
VERTEX
  8
0
 10
1876.838331
 20
60.150701
 42
0.036738
  0
VERTEX
  8
0
 10
1875.292956
 20
66.067986
 42
0.048536
  0
VERTEX
  8
0
 10
1872.614368
 20
71.972330
 42
0.000001
  0
VERTEX
  8
0
 10
1432.650794
 20
835.250070
 42
0.000007
  0
VERTEX
  8
0
 10
999.057463
 20
1587.448400
 42
0.009451
  0
VERTEX
  8
0
 10
982.202669
 20
1615.450308
 42
0.061380
  0
VERTEX
  8
0
 10
976.362242
 20
1622.623600
 42
0.043390
  0
VERTEX
  8
0
 10
968.263108
 20
1629.148068
 42
0.043211
  0
VERTEX
  8
0
 10
959.110484
 20
1634.208203
 42
0.058899
  0
VERTEX
  8
0
 10
950.113510
 20
1637.001210
 42
0.025300
  0
VERTEX
  8
0
 10
945.239326
 20
1637.652101
 42
0.021696
  0
VERTEX
  8
0
 10
940.066582
 20
1637.852788
 42
0.021671
  0
VERTEX
  8
0
 10
934.888951
 20
1637.604363
 42
0.025055
  0
SEQEND
  0
POLYLINE
  8
0
 66
1
 70
1
  0
VERTEX
  8
0
 10
1340.894157
 20
794.166917
 42
-0.000024
  0
VERTEX
  8
0
 10
1494.314433
 20
528.278923
 42
-0.000041
  0
VERTEX
  8
0
 10
1623.468909
 20
304.377958
 42
-0.000000
  0
VERTEX
  8
0
 10
1740.914143
 20
100.737638
 42
-0.131534
  0
VERTEX
  8
0
 10
1741.000000
 20
100.416917
 42
-0.414061
  0
VERTEX
  8
0
 10
1740.828148
 20
100.244975
 42
-0.000000
  0
VERTEX
  8
0
 10
1505.828646
 20
100.122469
 42
-0.000081
  0
VERTEX
  8
0
 10
1247.401075
 20
100.029959
 42
-0.000049
  0
VERTEX
  8
0
 10
940.416667
 20
100.000000
 42
-0.000093
  0
VERTEX
  8
0
 10
618.447663
 20
100.060123
 42
-0.000186
  0
VERTEX
  8
0
 10
363.684556
 20
100.250175
 42
-0.000002
  0
VERTEX
  8
0
 10
140.440379
 20
100.500623
 42
-0.522569
  0
VERTEX
  8
0
 10
140.166667
 20
100.895102
 42
-0.041774
  0
VERTEX
  8
0
 10
141.162623
 20
103.010726
 42
-0.000000
  0
VERTEX
  8
0
 10
540.530834
 20
794.920219
 42
-0.000000
  0
VERTEX
  8
0
 10
940.381987
 20
1487.665740
 42
-0.512923
  0
VERTEX
  8
0
 10
940.621214
 20
1487.689610
 42
-0.049772
  0
VERTEX
  8
0
 10
940.742203
 20
1487.521177
 42
-0.000000
  0
VERTEX
  8
0
 10
1058.270320
 20
1283.889105
 42
-0.000010
  0
VERTEX
  8
0
 10
1187.461662
 20
1060.038943
 42
-0.000006
  0
SEQEND
  0
POLYLINE
  8
0
 66
1
 70
1
  0
VERTEX
  8
0
 10
915.000000
 20
1089.965245
 42
0.020249
  0
VERTEX
  8
0
 10
885.540886
 20
1085.963113
 42
0.024998
  0
VERTEX
  8
0
 10
858.535376
 20
1079.767878
 42
0.025086
  0
VERTEX
  8
0
 10
832.361931
 20
1070.929802
 42
0.020647
  0
VERTEX
  8
0
 10
805.405404
 20
1058.985357
 42
0.064027
  0
VERTEX
  8
0
 10
740.296705
 20
1015.742486
 42
0.065045
  0
VERTEX
  8
0
 10
688.639973
 20
957.640340
 42
0.064822
  0
VERTEX
  8
0
 10
653.508146
 20
888.025970
 42
0.062848
  0
VERTEX
  8
0
 10
636.899168
 20
811.000000
 42
0.019027
  0
VERTEX
  8
0
 10
636.205711
 20
796.799934
 42
0.008486
  0
VERTEX
  8
0
 10
636.322280
 20
778.074270
 42
0.008385
  0
VERTEX
  8
0
 10
637.060466
 20
759.613602
 42
0.022418
  0
VERTEX
  8
0
 10
638.395209
 20
746.516929
 42
-0.001897
  0
VERTEX
  8
0
 10
638.946358
 20
742.678151
 42
-0.003103
  0
VERTEX
  8
0
 10
639.380866
 20
739.420529
 42
-0.000457
  0
VERTEX
  8
0
 10
639.744820
 20
736.535232
 42
-0.252867
  0
VERTEX
  8
0
 10
639.683596
 20
736.377750
 42
-0.076823
  0
VERTEX
  8
0
 10
639.522070
 20
736.278426
 42
-0.000174
  0
VERTEX
  8
0
 10
636.910181
 20
735.181457
 42
-0.001156
  0
VERTEX
  8
0
 10
633.963530
 20
733.953098
 42
-0.000718
  0
VERTEX
  8
0
 10
630.500000
 20
732.524479
 42
0.020257
  0
VERTEX
  8
0
 10
612.806317
 20
724.403651
 42
0.014909
  0
VERTEX
  8
0
 10
593.881134
 20
714.049762
 42
0.014633
  0
VERTEX
  8
0
 10
575.143889
 20
702.310530
 42
0.016826
  0
VERTEX
  8
0
 10
558.000000
 20
690.003874
 42
0.024740
  0
VERTEX
  8
0
 10
545.622965
 20
679.457223
 42
0.010554
  0
VERTEX
  8
0
 10
530.094919
 20
664.209254
 42
0.010602
  0
VERTEX
  8
0
 10
515.083597
 20
648.166182
 42
0.022283
  0
VERTEX
  8
0
 10
504.267529
 20
634.965256
 42
0.060547
  0
VERTEX
  8
0
 10
466.332626
 20
568.851690
 42
0.062417
  0
VERTEX
  8
0
 10
445.823913
 20
496.247902
 42
0.062603
  0
VERTEX
  8
0
 10
443.898764
 20
421.023802
 42
0.061545
  0
VERTEX
  8
0
 10
460.591597
 20
347.204812
 42
0.015579
  0
VERTEX
  8
0
 10
465.512226
 20
334.758228
 42
0.009300
  0
VERTEX
  8
0
 10
472.095595
 20
320.259780
 42
0.009282
  0
VERTEX
  8
0
 10
479.254308
 20
305.933492
 42
0.014817
  0
VERTEX
  8
0
 10
485.954426
 20
294.000000
 42
0.054235
  0
VERTEX
  8
0
 10
525.990622
 20
241.290025
 42
0.054595
  0
VERTEX
  8
0
 10
576.343130
 20
198.553742
 42
0.054546
  0
VERTEX
  8
0
 10
634.795675
 20
167.698139
 42
0.053954
  0
VERTEX
  8
0
 10
698.751481
 20
150.072923
 42
0.050606
  0
VERTEX
  8
0
 10
759.339834
 20
146.434497
 42
0.050047
  0
VERTEX
  8
0
 10
819.658592
 20
155.005898
 42
0.050017
  0
VERTEX
  8
0
 10
877.104443
 20
175.398912
 42
0.050424
  0
VERTEX
  8
0
 10
929.189385
 20
206.750000
 42
-0.001292
  0
VERTEX
  8
0
 10
933.437419
 20
209.912916
 42
-0.002096
  0
VERTEX
  8
0
 10
937.065966
 20
212.576562
 42
-0.000295
  0
VERTEX
  8
0
 10
940.298338
 20
214.925681
 42
-0.158267
  0
VERTEX
  8
0
 10
940.527245
 20
215.000000
 42
-0.158500
  0
VERTEX
  8
0
 10
940.754200
 20
214.926201
 42
-0.000453
  0
VERTEX
  8
0
 10
943.344343
 20
213.038980
 42
-0.002606
  0
VERTEX
  8
0
 10
946.264982
 20
210.883481
 42
-0.001617
  0
VERTEX
  8
0
 10
949.672147
 20
208.324188
 42
0.076760
  0
VERTEX
  8
0
 10
1032.565875
 20
163.656001
 42
0.077755
  0
VERTEX
  8
0
 10
1124.703173
 20
146.333918
 42
0.077805
  0
VERTEX
  8
0
 10
1217.676244
 20
157.984467
 42
0.077010
  0
VERTEX
  8
0
 10
1303.000000
 20
197.495986
 42
0.065850
  0
VERTEX
  8
0
 10
1362.219453
 20
249.320577
 42
0.064128
  0
VERTEX
  8
0
 10
1406.547365
 20
315.196905
 42
0.064476
  0
VERTEX
  8
0
 10
1432.558448
 20
389.807609
 42
0.067915
  0
VERTEX
  8
0
 10
1438.070203
 20
467.249324
 42
0.042001
  0
VERTEX
  8
0
 10
1429.627841
 20
523.673338
 42
0.047143
  0
VERTEX
  8
0
 10
1412.015522
 20
575.652932
 42
0.047479
  0
VERTEX
  8
0
 10
1385.112278
 20
623.102261
 42
0.043708
  0
VERTEX
  8
0
 10
1349.067220
 20
666.067220
 42
0.022790
  0
VERTEX
  8
0
 10
1326.268661
 20
686.877066
 42
0.025383
  0
VERTEX
  8
0
 10
1302.447591
 20
704.742766
 42
0.025722
  0
VERTEX
  8
0
 10
1277.237406
 20
719.899433
 42
0.024747
  0
VERTEX
  8
0
 10
1250.282761
 20
732.602107
 42
-0.000733
  0
VERTEX
  8
0
 10
1246.902529
 20
734.000959
 42
-0.001179
  0
VERTEX
  8
0
 10
1244.026005
 20
735.204260
 42
-0.000181
  0
VERTEX
  8
0
 10
1241.477740
 20
736.278397
 42
-0.076493
  0
VERTEX
  8
0
 10
1241.316404
 20
736.377750
 42
-0.252508
  0
VERTEX
  8
0
 10
1241.255051
 20
736.535247
 42
-0.000457
  0
VERTEX
  8
0
 10
1241.615045
 20
739.420529
 42
-0.003101
  0
VERTEX
  8
0
 10
1242.045059
 20
742.678152
 42
-0.001896
  0
VERTEX
  8
0
 10
1242.590871
 20
746.516929
 42
0.021988
  0
VERTEX
  8
0
 10
1243.926015
 20
759.683542
 42
0.008364
  0
VERTEX
  8
0
 10
1244.670852
 20
778.127772
 42
0.008436
  0
VERTEX
  8
0
 10
1244.796825
 20
796.757013
 42
0.019636
  0
VERTEX
  8
0
 10
1244.107972
 20
810.696463
 42
0.034866
  0
VERTEX
  8
0
 10
1236.846674
 20
856.169027
 42
0.037580
  0
VERTEX
  8
0
 10
1223.439497
 20
899.028067
 42
0.037692
  0
VERTEX
  8
0
 10
1203.811927
 20
939.284423
 42
0.035495
  0
VERTEX
  8
0
 10
1178.011561
 20
977.000000
 42
0.019108
  0
VERTEX
  8
0
 10
1168.449708
 20
988.144079
 42
0.009514
  0
VERTEX
  8
0
 10
1155.547183
 20
1001.547183
 42
0.009514
  0
VERTEX
  8
0
 10
1142.144079
 20
1014.449708
 42
0.019108
  0
VERTEX
  8
0
 10
1131.000000
 20
1024.011561
 42
0.033149
  0
VERTEX
  8
0
 10
1096.298595
 20
1047.989532
 42
0.034327
  0
VERTEX
  8
0
 10
1059.124459
 20
1066.860827
 42
0.034446
  0
VERTEX
  8
0
 10
1019.843320
 20
1080.414556
 42
0.033889
  0
VERTEX
  8
0
 10
978.859016
 20
1088.536443
 42
0.019284
  0
VERTEX
  8
0
 10
965.431328
 20
1089.739009
 42
0.007097
  0
VERTEX
  8
0
 10
946.412457
 20
1090.434714
 42
0.006965
  0
VERTEX
  8
0
 10
927.559042
 20
1090.593865
 42
0.022265
  0
SEQEND
  0
ENDSEC
  0
EOF
